<?xml version="1.0" encoding="utf-8"?>
<!-- Generator: Adobe Illustrator 21.0.0, SVG Export Plug-In . SVG Version: 6.00 Build 0)  -->
<svg version="1.1" id="Layer_1" xmlns="http://www.w3.org/2000/svg" xmlns:xlink="http://www.w3.org/1999/xlink" x="0px" y="0px"
	 viewBox="0 0 512 512" style="enable-background:new 0 0 512 512;" xml:space="preserve">
<style type="text/css">
	.st0{fill:url(#SVGID_1_);}
	.st1{fill:#C95EBE;}
	.st2{fill:#FCFCFC;stroke:#FCFCFC;stroke-width:4;stroke-miterlimit:10;}
</style>
<g>
	<g id="svg_1">
		
			<radialGradient id="SVGID_1_" cx="-64.2648" cy="-22.3893" r="13.2305" gradientTransform="matrix(9.695638e-16 15.3688 -15.4467 9.180418e-16 -89.841 1243.6731)" gradientUnits="userSpaceOnUse">
			<stop  offset="0" style="stop-color:#412A4C"/>
			<stop  offset="4.280270e-03" style="stop-color:#412A4C"/>
			<stop  offset="1" style="stop-color:#2C1338"/>
		</radialGradient>
		<path class="st0" d="M360.6,52.7H151.4c-54.5,0-98.7,44.2-98.7,98.7v209.2c0,54.5,44.2,98.7,98.7,98.7h209.2
			c54.5,0,98.7-44.2,98.7-98.7V151.4C459.3,96.9,415.1,52.7,360.6,52.7z"/>
		<path id="svg_2" class="st1" d="M256,104.5L256,104.5c83.7,0,151.5,67.8,151.5,151.5l0,0c0,83.7-67.8,151.5-151.5,151.5l0,0
			c-83.7,0-151.5-67.8-151.5-151.5l0,0C104.5,172.3,172.3,104.5,256,104.5z"/>
		<path class="st2" d="M195.1,293.5v-75.1c0-13,10.5-23.3,23.3-23.3h24.7c5,0,9.2,4.1,9.2,9.2c0,5-4.1,9.2-9.2,9.2h-24.7
			c-2.7,0-5,2.3-5,5v75.1c0,2.7,2.3,5,5,5h75.1c2.7,0,5-2.3,5-5v-24.7c0-5,4.1-9.2,9.2-9.2c5,0,9.2,4.1,9.2,9.2v24.7
			c0,13-10.5,23.3-23.3,23.3l-75.1,0C205.5,316.9,195.1,306.5,195.1,293.5L195.1,293.5z M276,195.1c-5,0-9.2,4.1-9.2,9.2
			c0,5,4.1,9.2,9.2,9.2h9.6l-34.8,34.8c-3.5,3.5-3.5,9.3,0,13c3.5,3.7,9.3,3.5,13,0l34.8-34.8v9.6c0,5,4.1,9.2,9.2,9.2
			s9.2-4.1,9.2-9.2l0-31.3c0-5.3-4.3-9.6-9.6-9.6L276,195.1z"/>
	</g>
</g>
</svg>
