<?xml version="1.0" encoding="utf-8"?>
<!-- Generator: Adobe Illustrator 21.0.0, SVG Export Plug-In . SVG Version: 6.00 Build 0)  -->
<svg version="1.1" id="Layer_1" xmlns="http://www.w3.org/2000/svg" xmlns:xlink="http://www.w3.org/1999/xlink" x="0px" y="0px"
	 viewBox="0 0 512 512" style="enable-background:new 0 0 512 512;" xml:space="preserve">
<style type="text/css">
	.st0{fill:url(#SVGID_1_);}
	.st1{fill:#C95EBE;}
	.st2{fill:#FCFCFC;}
</style>
<g>
	<g id="svg_1">
		
			<radialGradient id="SVGID_1_" cx="-104.2205" cy="678.5615" r="13.2305" gradientTransform="matrix(9.695638e-16 15.3688 15.4467 -9.180418e-16 -10225.5361 1857.7443)" gradientUnits="userSpaceOnUse">
			<stop  offset="0" style="stop-color:#412A4C"/>
			<stop  offset="4.280270e-03" style="stop-color:#412A4C"/>
			<stop  offset="1" style="stop-color:#2C1338"/>
		</radialGradient>
		<path class="st0" d="M360.6,52.7H151.4c-54.5,0-98.7,44.2-98.7,98.7v209.2c0,54.5,44.2,98.7,98.7,98.7h209.2
			c54.5,0,98.7-44.2,98.7-98.7V151.4C459.3,96.9,415.1,52.7,360.6,52.7z"/>
		<path id="svg_2" class="st1" d="M256,104.5L256,104.5c83.7,0,151.5,67.8,151.5,151.5l0,0c0,83.7-67.8,151.5-151.5,151.5l0,0
			c-83.7,0-151.5-67.8-151.5-151.5l0,0C104.5,172.3,172.3,104.5,256,104.5z"/>
		<g>
			<g>
				<path class="st2" d="M244.5,321.5c-3,0-5.5-1.4-6.9-2.8l-16.2-16.2c-2-2-3.3-4.7-3.3-6.9c0-2.7,1.2-5.4,3.3-7.5l16.2-16.2
					c1.8-2,4.2-3.1,7-3.1s5.2,1.1,7,3.1c2,2,3.2,4.6,3.2,6.8v6.5h29c11.2,0,20.6-9.4,20.6-20.6v-17.3c0-5.5,4.8-10.3,10.3-10.3
					c5.3,0,9.7,4.6,9.7,10.3v17.3c0,22.4-18.2,40.6-40.6,40.6h-29v6.5C254.7,317.1,250,321.5,244.5,321.5z"/>
				<path class="st2" d="M314.8,238.1c4.8,0,8.7,4.1,8.7,9.3v17.3c0,21.8-17.8,39.6-39.6,39.6h-30v7.5c-0.2,4.7-4.3,8.7-9.4,8.7
					c-2.6,0-4.9-1.3-6.2-2.5l-16.2-16.2c-1.8-1.8-3-4.2-3-6.2c0-2.3,1.1-4.8,3-6.8l16.2-16.2c1.5-1.7,3.8-2.8,6.3-2.8
					s4.7,1.1,6.3,2.8c1.8,1.8,3,4.2,3,6.2v7.5h30c11.8,0,21.6-9.9,21.6-21.6v-17.3C305.5,242.5,309.8,238.1,314.8,238.1
					 M314.8,236.1c-6,0-11.3,5.3-11.3,11.3v17.3c0,10.6-9,19.6-19.6,19.6h-28v-5.5c0-2.5-1.4-5.3-3.5-7.5c-2-2.2-4.7-3.4-7.7-3.4
					c-3,0-5.7,1.2-7.7,3.4l-16.2,16.2c-2.3,2.3-3.6,5.3-3.6,8.2c0,2.5,1.4,5.4,3.6,7.6l16.2,16.2c1.5,1.5,4.3,3.1,7.6,3.1
					c6,0,11.1-4.8,11.4-10.6l0,0v0v-5.5h28c22.9,0,41.6-18.6,41.6-41.6v-17.3C325.4,241.2,320.7,236.1,314.8,236.1L314.8,236.1z"/>
			</g>
			<g>
				<path class="st2" d="M197.9,274.9c-5.5,0-10.3-4.8-10.3-10.3v-17.3c0-22.4,18.2-40.6,40.6-40.6h29v-5.9
					c0-5.5,4.8-10.3,10.3-10.3c2.3,0,4.6,0.8,7.1,2.5l0.1,0.1l0.2,0.2l15.8,16.3c2.1,2.1,3.3,4.8,3.3,7.5c0,3.2-1.9,5.5-3.3,6.9
					l-16.2,16.2c-1.8,2-4.2,3.1-7,3.1c-2.7,0-5.2-1.1-7-3.1c-2-2-3.2-4.6-3.2-6.8v-6.5h-29c-11.2,0-20.6,9.4-20.6,20.6v17.3
					C207.6,270.2,203.3,274.9,197.9,274.9z"/>
				<path class="st2" d="M267.5,191.5c2,0,4.2,0.8,6.6,2.3l0.1,0.1l15.8,16.3c1.9,1.9,3,4.3,3,6.8c0,2.8-1.6,4.8-3,6.2l-16.2,16.2
					c-1.5,1.7-3.8,2.8-6.3,2.8c-2.5,0-4.7-1.1-6.3-2.8c-1.8-1.8-3-4.2-3-6.2v-7.5h-30c-11.8,0-21.6,9.9-21.6,21.6v17.3
					c0,5.1-3.9,9.3-8.7,9.3c-4.9,0-9.3-4.3-9.3-9.3v-17.3c0-21.8,17.8-39.6,39.6-39.6h30v-6.9C258.2,195.9,262.6,191.5,267.5,191.5
					 M267.5,189.5c-6,0-11.3,5.3-11.3,11.3v4.9h-28c-22.9,0-41.6,18.6-41.6,41.6v17.3c0,6,5.3,11.3,11.3,11.3c2.9,0,5.6-1.2,7.6-3.3
					c2-2.1,3.1-4.9,3.1-7.9v-17.3c0-10.6,9-19.6,19.6-19.6h28v5.5c0,2.5,1.4,5.3,3.5,7.5c2,2.2,4.7,3.4,7.7,3.4c3,0,5.7-1.2,7.7-3.4
					l16.2-16.2c0.9-0.9,3.6-3.6,3.6-7.6c0-3-1.3-5.9-3.6-8.2l-15.8-16.3l-0.1-0.1l-0.1-0.1l-0.2-0.1
					C272.5,190.4,269.9,189.5,267.5,189.5L267.5,189.5z"/>
			</g>
		</g>
	</g>
</g>
</svg>
