<?xml version="1.0" encoding="utf-8"?>
<!-- Generator: Adobe Illustrator 21.0.0, SVG Export Plug-In . SVG Version: 6.00 Build 0)  -->
<svg version="1.1" id="Layer_1" xmlns="http://www.w3.org/2000/svg" xmlns:xlink="http://www.w3.org/1999/xlink" x="0px" y="0px"
	 viewBox="0 0 512 512" style="enable-background:new 0 0 512 512;" xml:space="preserve">
<style type="text/css">
	.st0{fill:url(#SVGID_1_);}
	.st1{fill:#E87161;}
	.st2{fill:#FCFCFC;}
</style>
<g>
	<g id="svg_1_1_">
		
			<radialGradient id="SVGID_1_" cx="-64.2648" cy="-22.3893" r="13.2305" gradientTransform="matrix(9.695638e-16 15.3688 -15.4467 9.180418e-16 -89.841 1243.6731)" gradientUnits="userSpaceOnUse">
			<stop  offset="0" style="stop-color:#412A4C"/>
			<stop  offset="4.280270e-03" style="stop-color:#412A4C"/>
			<stop  offset="1" style="stop-color:#2C1338"/>
		</radialGradient>
		<path class="st0" d="M360.6,52.7H151.4c-54.5,0-98.7,44.2-98.7,98.7v209.2c0,54.5,44.2,98.7,98.7,98.7h209.2
			c54.5,0,98.7-44.2,98.7-98.7V151.4C459.3,96.9,415.1,52.7,360.6,52.7z"/>
		<path id="svg_2_1_" class="st1" d="M256,104.5L256,104.5c83.7,0,151.5,67.8,151.5,151.5l0,0c0,83.7-67.8,151.5-151.5,151.5l0,0
			c-83.7,0-151.5-67.8-151.5-151.5l0,0C104.5,172.3,172.3,104.5,256,104.5z"/>
		<path class="st2" d="M234.2,292.8c-1,1-1.5,2.1-1.5,3.5V316c0,1.4,0.5,2.6,1.5,3.5c0.9,1,2.1,1.5,3.5,1.5h0.4v2.2
			c0,1.5,0.5,2.7,1.6,3.6c0.9,0.9,2,1.3,3.4,1.3h25.8c1.4,0,2.6-0.4,3.5-1.3c1-1,1.5-2.2,1.5-3.6V321h0.4c1.5,0,2.7-0.5,3.6-1.5
			s1.3-2.1,1.3-3.5v-19.7c0-1.4-0.4-2.6-1.3-3.5c-1-1-2.2-1.5-3.6-1.5h-36.6C236.3,291.3,235.1,291.8,234.2,292.8"/>
		<path class="st2" d="M248.4,184.7c-0.3,0-0.7,0-1,0.1c-8.4,1.7-15.8,5.6-22.2,11.9c-7.5,7.5-11.7,16.4-12.6,26.7l0.1-0.3
			c-0.1,0.8-0.2,1.6-0.2,2.4c-0.1,0.7-0.1,1.4-0.1,2.2v0.8c0,1.4,0.1,2.8,0.3,4.3v0.1c0.2,1,0.4,2,0.5,3c1.3,8,4.9,15,10.7,21.3
			c4.4,4.8,7.2,10.3,8.4,16.3c0.1,0.8,0.1,1.7,0.2,2.6c0,0.1,0,0.2,0.1,0.3c0.1,1.2,0.2,2.4,0.2,3.7c0,1.4,0.5,2.6,1.5,3.6
			c0.9,0.9,2.1,1.3,3.5,1.3h36.6c1.5,0,2.7-0.4,3.6-1.3c0.9-1,1.3-2.2,1.3-3.6c0-1.3,0.1-2.7,0.2-4c0.1-0.9,0.3-1.8,0.4-2.6
			c1.1-6,3.9-11.4,8.4-16.3c5.7-6.2,9.3-13.3,10.7-21.3c0.1-1,0.3-2,0.5-3v-0.5c0.1-1.6,0.1-3.1,0.1-4.7v-1.9c0-0.8,0-1.7-0.1-2.7
			v0.3c-0.8-10.3-5-19.2-12.5-26.7l0,0c-6.8-6.7-14.6-10.7-23.6-12h0.2c-2.5-0.6-5-0.8-7.6-0.8s-5.1,0.3-7.5,0.8H248.4"/>
	</g>
</g>
</svg>
