<?xml version="1.0" encoding="utf-8"?>
<!-- Generator: Adobe Illustrator 21.0.0, SVG Export Plug-In . SVG Version: 6.00 Build 0)  -->
<svg version="1.1" id="Layer_1" xmlns="http://www.w3.org/2000/svg" xmlns:xlink="http://www.w3.org/1999/xlink" x="0px" y="0px"
	 viewBox="0 0 512 512" style="enable-background:new 0 0 512 512;" xml:space="preserve">
<style type="text/css">
	.st0{fill:url(#SVGID_1_);}
	.st1{fill:#E57CD8;}
	.st2{fill:#2C1338;}
</style>
<radialGradient id="SVGID_1_" cx="-24.3091" cy="672.2155" r="13.2297" gradientTransform="matrix(9.695638e-16 15.3688 15.4467 -9.180418e-16 -10127.5361 629.6019)" gradientUnits="userSpaceOnUse">
	<stop  offset="0" style="stop-color:#412A4C"/>
	<stop  offset="4.280270e-03" style="stop-color:#412A4C"/>
	<stop  offset="1" style="stop-color:#2C1338"/>
</radialGradient>
<path class="st0" d="M360.6,52.7H151.4c-54.5,0-98.7,44.2-98.7,98.7v209.2c0,54.5,44.2,98.7,98.7,98.7h209.2
	c54.5,0,98.7-44.2,98.7-98.7V151.4C459.3,96.9,415.1,52.7,360.6,52.7z"/>
<path class="st1" d="M256,104.5c-83.7,0-151.5,67.8-151.5,151.5c0,83.7,67.8,151.5,151.5,151.5S407.5,339.7,407.5,256
	C407.5,172.3,339.7,104.5,256,104.5z"/>
<path class="st2" d="M245.1,269.8h22.3V159.3h-22.3V269.8z"/>
<path class="st2" d="M256.2,337.6c-42.8,0-77.6-34.7-77.6-77.6c0-35.7,24.2-65.8,57.1-74.8v22.5c-20.9,8.2-35.7,28.5-35.7,52.3
	c0,31,25.2,56.2,56.2,56.2c31,0,56.2-25.2,56.2-56.2c0-23.8-14.8-44.1-35.7-52.3v-22.5c32.9,9,57.1,39.1,57.1,74.8
	C333.8,302.8,299,337.6,256.2,337.6z"/>
</svg>
