<?xml version="1.0" encoding="utf-8"?>
<!-- Generator: Adobe Illustrator 21.0.0, SVG Export Plug-In . SVG Version: 6.00 Build 0)  -->
<svg version="1.1" id="Layer_1" xmlns="http://www.w3.org/2000/svg" xmlns:xlink="http://www.w3.org/1999/xlink" x="0px" y="0px"
	 viewBox="0 0 512 512" style="enable-background:new 0 0 512 512;" xml:space="preserve">
<style type="text/css">
	.st0{fill:url(#SVGID_1_);}
	.st1{fill:#C95EBE;}
	.st2{fill:#FCFCFC;}
	.st3{display:none;fill:#FCFCFC;}
</style>
<g>
	<g id="svg_1">
		
			<radialGradient id="SVGID_1_" cx="-64.2648" cy="-22.3893" r="13.2305" gradientTransform="matrix(9.695638e-16 15.3688 -15.4467 9.180418e-16 -89.841 1243.6731)" gradientUnits="userSpaceOnUse">
			<stop  offset="0" style="stop-color:#412A4C"/>
			<stop  offset="4.280270e-03" style="stop-color:#412A4C"/>
			<stop  offset="1" style="stop-color:#2C1338"/>
		</radialGradient>
		<path class="st0" d="M360.6,52.7H151.4c-54.5,0-98.7,44.2-98.7,98.7v209.2c0,54.5,44.2,98.7,98.7,98.7h209.2
			c54.5,0,98.7-44.2,98.7-98.7V151.4C459.3,96.9,415.1,52.7,360.6,52.7z"/>
		<path id="svg_2" class="st1" d="M256,104.5L256,104.5c83.7,0,151.5,67.8,151.5,151.5l0,0c0,83.7-67.8,151.5-151.5,151.5l0,0
			c-83.7,0-151.5-67.8-151.5-151.5l0,0C104.5,172.3,172.3,104.5,256,104.5z"/>
		<path class="st2" d="M210.6,290.4h-8.3c-4.3,0-8.4-1.7-11.4-4.7c-3-3-4.7-7.1-4.7-11.4v-37c0-4.3,1.7-8.4,4.7-11.4
			c3-3,7.1-4.7,11.4-4.7h8.3V290.4z M309.7,221.4h-66.9v69h66.9c4.3,0,8.4-1.7,11.4-4.7c3-3,4.7-7.1,4.7-11.4v-37
			c-0.1-4.2-1.8-8.3-4.8-11.2C318,223,313.9,221.4,309.7,221.4L309.7,221.4z M237.8,300.3c-1.5,0-3-0.6-4.1-1.7
			c-1.1-1.1-1.7-2.5-1.7-4.1v-77.2c0-1.5,0.6-3,1.7-4.1c1.1-1.1,2.5-1.7,4.1-1.7c1.9,0,3.7-1,4.6-2.7c1-1.7,1-3.7,0-5.4
			c-1-1.7-2.7-2.7-4.6-2.7c-4.1,0-8.1,1.6-11.1,4.4c-3-2.8-7-4.4-11.1-4.4c-1.9,0-3.7,1-4.6,2.7c-1,1.7-1,3.7,0,5.4
			c1,1.7,2.7,2.7,4.6,2.7c1.5,0,3,0.6,4.1,1.7c1.1,1.1,1.7,2.5,1.7,4.1v77.2c0,1.5-0.6,3-1.7,4.1c-1.1,1.1-2.5,1.7-4.1,1.7
			c-1.9,0-3.7,1-4.6,2.7c-1,1.7-1,3.7,0,5.4c1,1.7,2.7,2.7,4.6,2.7c4.1,0,8.1-1.6,11.1-4.4c3,2.8,7,4.4,11.1,4.4
			c1.9,0,3.7-1,4.6-2.7c1-1.7,1-3.7,0-5.4C241.5,301.4,239.7,300.3,237.8,300.3L237.8,300.3z"/>
		<path class="st3" d="M251.6,232.9c-0.1-0.7-0.2-1.4-0.4-2c-1.5-16.9-15.6-30.1-32.9-30.1c-18.2,0-33,14.8-33,33
			c0,17.7,13.9,32.1,31.4,32.9c-4.2,6.7-11,12.1-19.3,14.6l-0.3,0.1c-3.8,1.2-6.5,4.9-6.1,9.1c0.4,4.8,4.6,8.4,9.5,8
			c14.2-1.2,28.4-8.5,38-20.2c4.8-5.9,8.6-12.8,10.9-20.3c2.3-7.5,3.1-15.6,2.3-23.6L251.6,232.9z"/>
		<path class="st3" d="M326.2,232.9c-0.1-0.7-0.2-1.4-0.4-2c-1.5-16.9-15.6-30.1-32.9-30.1c-18.2,0-33,14.8-33,33
			c0,17.7,13.9,32.1,31.4,32.9c-4.2,6.7-11,12.1-19.3,14.6l-0.3,0.1c-3.8,1.2-6.5,4.9-6.1,9.1c0.4,4.8,4.6,8.4,9.5,8
			c14.2-1.2,28.4-8.5,38-20.2c4.8-5.9,8.6-12.8,10.9-20.3c2.3-7.5,3.1-15.6,2.3-23.6L326.2,232.9z"/>
	</g>
</g>
</svg>
