<?xml version="1.0" encoding="utf-8"?>
<!-- Generator: Adobe Illustrator 21.0.0, SVG Export Plug-In . SVG Version: 6.00 Build 0)  -->
<svg version="1.1" id="Layer_1" xmlns="http://www.w3.org/2000/svg" xmlns:xlink="http://www.w3.org/1999/xlink" x="0px" y="0px"
	 viewBox="0 0 512 512" style="enable-background:new 0 0 512 512;" xml:space="preserve">
<style type="text/css">
	.st0{fill:url(#SVGID_1_);}
	.st1{fill:#E87161;}
	.st2{fill:#FCFCFC;}
</style>
<g>
	<g id="svg_1">
		
			<radialGradient id="SVGID_1_" cx="-24.3091" cy="672.2155" r="13.2297" gradientTransform="matrix(9.695638e-16 15.3688 15.4467 -9.180418e-16 -10127.5361 629.6019)" gradientUnits="userSpaceOnUse">
			<stop  offset="0" style="stop-color:#412A4C"/>
			<stop  offset="4.280270e-03" style="stop-color:#412A4C"/>
			<stop  offset="1" style="stop-color:#2C1338"/>
		</radialGradient>
		<path class="st0" d="M360.6,52.7H151.4c-54.5,0-98.7,44.2-98.7,98.7v209.2c0,54.5,44.2,98.7,98.7,98.7h209.2
			c54.5,0,98.7-44.2,98.7-98.7V151.4C459.3,96.9,415.1,52.7,360.6,52.7z"/>
		<path id="svg_2" class="st1" d="M256,104.5L256,104.5c83.7,0,151.5,67.8,151.5,151.5l0,0c0,83.7-67.8,151.5-151.5,151.5l0,0
			c-83.7,0-151.5-67.8-151.5-151.5l0,0C104.5,172.3,172.3,104.5,256,104.5z"/>
		<path id="svg_3" class="st2" d="M209.7,197.1h92.6c7,0,12.6,5.7,12.6,12.6v92.6c0,7-5.7,12.6-12.6,12.6h-92.6
			c-7,0-12.6-5.7-12.6-12.6v-92.6C197.1,202.7,202.7,197.1,209.7,197.1z"/>
	</g>
</g>
</svg>
